<svg width="52" height="52" viewBox="0 0 52 52" fill="none" xmlns="http://www.w3.org/2000/svg">
<path fill-rule="evenodd" clip-rule="evenodd" d="M29.95 3.24992C35.15 3.57492 40.025 6.17492 43.6 9.74992C47.825 14.2999 50.1 19.8249 50.1 26.3249C50.1 31.5249 48.15 36.3999 44.9 40.6249C41.65 44.5249 37.1 47.4499 31.9 48.4249C26.7 49.3999 21.5 48.7499 16.95 46.1499C12.4 43.5499 8.82502 39.6499 6.87502 34.7749C4.92502 29.8999 4.60002 24.3749 6.22502 19.4999C7.85002 14.2999 10.775 10.0749 15.325 7.14992C19.55 4.22492 24.75 2.92492 29.95 3.24992ZM31.575 45.1749C35.8 44.1999 39.7 41.9249 42.625 38.3499C45.225 34.7749 46.85 30.5499 46.525 25.9999C46.525 20.7999 44.575 15.5999 41 12.0249C37.75 8.77492 33.85 6.82492 29.3 6.49992C25.075 6.17492 20.525 7.14992 16.95 9.74992C13.375 12.3499 10.775 15.9249 9.47502 20.4749C8.17502 24.6999 8.17502 29.2499 10.125 33.4749C12.075 37.6999 15 40.9499 18.9 43.2249C22.8 45.4999 27.35 46.1499 31.575 45.1749V45.1749ZM27.675 24.3749L35.475 16.2499L37.75 18.5249L29.95 26.6499L37.75 34.7749L35.475 37.0499L27.675 28.9249L19.875 37.0499L17.6 34.7749L25.4 26.6499L17.6 18.5249L19.875 16.2499L27.675 24.3749V24.3749Z" fill="#F41616"/>
</svg>
