<svg width="47" height="47" viewBox="0 0 47 47" fill="none" xmlns="http://www.w3.org/2000/svg">
<g clip-path="url(#clip0_5_232)">
<path d="M47 28.1177L41.0466 22.3113L46.154 15.7548L38.0974 13.6966L39.2411 5.46375L31.2354 7.70017L28.1021 0L22.2956 5.95333L15.7391 0.846L13.6809 8.90258L5.44806 7.75892L7.68448 15.7626L-0.015686 18.8881L5.93765 24.6965L0.830314 31.253L8.8869 33.3112L7.73148 41.5441L15.7352 39.3077L18.8685 47.0078L24.675 41.0545L31.2315 46.1618L33.2897 38.1052L41.5245 39.2607L39.2881 31.257L47 28.1177ZM27.9669 36.5425C25.3903 37.4189 22.6119 37.5131 19.9818 36.8131C17.3517 36.1132 14.9876 34.6505 13.1874 32.6092C11.3872 30.568 10.2315 28.0397 9.86576 25.3427C9.50006 22.6458 9.94077 19.9009 11.1324 17.454C12.324 15.0071 14.2132 12.9676 16.5619 11.5926C18.9106 10.2175 21.6138 9.56836 24.3308 9.72695C27.0478 9.88555 29.6571 10.8448 31.8298 12.4838C34.0026 14.1227 35.6417 16.3682 36.5405 18.9371L36.5699 19.033C37.0399 20.3627 37.3101 21.8942 37.3101 23.4902C37.3102 26.3518 36.4201 29.1425 34.7632 31.4755C33.1063 33.8086 30.7647 35.5684 28.0629 36.5112L27.9669 36.5405V36.5425Z" fill="#E4A90F"/>
</g>
<defs>
<clipPath id="clip0_5_232">
<rect width="47" height="47" fill="white"/>
</clipPath>
</defs>
</svg>
